<?xml version="1.0" encoding="UTF-8"?>
<!--Generator: Apple Native CoreSVG 360-->
<!DOCTYPE svg
PUBLIC "-//W3C//DTD SVG 1.1//EN"
       "http://www.w3.org/Graphics/SVG/1.1/DTD/svg11.dtd">
<svg version="1.1" xmlns="http://www.w3.org/2000/svg" xmlns:xlink="http://www.w3.org/1999/xlink" viewBox="0 0 99.6094 99.6582">
 <g>
  <rect height="99.6582" opacity="0" width="99.6094" x="0" y="0"/>
  <path d="M99.6094 49.8047C99.6094 77.2461 77.2949 99.6094 49.8047 99.6094C22.3633 99.6094 0 77.2461 0 49.8047C0 22.3145 22.3633 0 49.8047 0C77.2949 0 99.6094 22.3145 99.6094 49.8047ZM37.0117 18.8965L36.7188 36.4258C36.7188 37.3047 36.084 37.9883 35.0586 37.9883C34.1797 37.9883 33.4961 37.3047 33.4961 36.377L33.7402 19.3359C33.7402 18.0664 33.0566 17.2852 31.8848 17.2852C30.7617 17.2852 30.0293 18.0176 29.9805 19.2871L29.1992 36.7188C28.9551 41.748 30.5664 43.457 34.375 45.0684C35.2539 45.459 35.6934 46.2402 35.6934 47.2168L35.1074 79.1504C35.0586 81.4941 36.5723 82.7637 38.916 82.7637C41.3086 82.7637 42.8223 81.4941 42.7246 79.1504L42.2363 47.2168C42.2363 46.2402 42.627 45.459 43.5059 45.0684C47.2656 43.457 48.9258 41.748 48.6816 36.7188L47.8516 19.2871C47.7539 18.0176 47.1191 17.2852 45.9473 17.2852C44.8242 17.2852 44.1406 18.0664 44.1406 19.3359L44.3848 36.377C44.3848 37.3047 43.7012 37.9883 42.7246 37.9883C41.748 37.9883 41.0645 37.3047 41.0645 36.4258L40.8691 18.8965C40.8691 17.627 40.0391 16.9434 38.916 16.9434C37.793 16.9434 37.0117 17.627 37.0117 18.8965ZM61.6211 18.8477C57.0312 25.2441 54.0039 37.2559 54.0039 48.584L54.0039 50.4883C54.0039 52.4902 54.7852 53.8574 56.2012 54.8828L57.8125 56.0547C58.8379 56.7383 59.3262 57.5195 59.2773 58.5938L58.6426 79.0039C58.5938 81.4941 60.1562 82.7637 62.4512 82.7637C64.8926 82.7637 66.3574 81.5918 66.3574 79.2969L66.3574 19.043C66.3574 17.5781 65.332 16.9434 64.3066 16.9434C63.2812 16.9434 62.5 17.5293 61.6211 18.8477Z" fill="white"/>
 </g>
</svg>
