<svg width="98" height="30" viewBox="0 0 98 30" fill="none" xmlns="http://www.w3.org/2000/svg">
<path d="M10.8 29.28C7.65333 29.28 5.06667 28.2533 3.04 26.2C1.01333 24.1333 1.93715e-07 21.5 1.93715e-07 18.3C1.93715e-07 15.1 1.01333 12.4867 3.04 10.46C5.08 8.42 7.67333 7.4 10.82 7.4C12.2467 7.4 13.54 7.60667 14.7 8.02C15.86 8.42 16.9067 9.04 17.84 9.88C18.7867 10.72 19.62 11.9467 20.34 13.56L15.9 15.3C15.4333 14.4067 14.9733 13.7333 14.52 13.28C14.0667 12.8267 13.5333 12.4933 12.92 12.28C12.32 12.0533 11.6467 11.94 10.9 11.94C9.31333 11.94 7.95333 12.5267 6.82 13.7C5.7 14.8733 5.14 16.4067 5.14 18.3C5.14 20.18 5.69333 21.72 6.8 22.92C7.92 24.12 9.28 24.72 10.88 24.72C11.6133 24.72 12.2933 24.6067 12.92 24.38C13.5467 24.14 14.0867 23.8067 14.54 23.38C14.9933 22.9533 15.48 22.26 16 21.3L20.46 22.9C19.7267 24.54 18.9067 25.7867 18 26.64C17.1067 27.48 16.06 28.1333 14.86 28.6C13.66 29.0533 12.3067 29.28 10.8 29.28ZM33.4419 29.28C30.2552 29.28 27.6219 28.24 25.5419 26.16C23.4619 24.08 22.4219 21.4733 22.4219 18.34C22.4219 15.1667 23.4619 12.5533 25.5419 10.5C27.6219 8.43333 30.2552 7.4 33.4419 7.4C36.6152 7.4 39.2419 8.44 41.3219 10.52C43.4152 12.5867 44.4619 15.1933 44.4619 18.34C44.4619 21.4733 43.4219 24.08 41.3419 26.16C39.2752 28.24 36.6419 29.28 33.4419 29.28ZM33.4419 24.7C35.0952 24.7 36.4819 24.1 37.6019 22.9C38.7352 21.7 39.3019 20.18 39.3019 18.34C39.3019 16.46 38.7352 14.9333 37.6019 13.76C36.4685 12.5733 35.0819 11.98 33.4419 11.98C31.7885 11.98 30.3952 12.5733 29.2619 13.76C28.1419 14.9467 27.5819 16.4733 27.5819 18.34C27.5819 20.18 28.1419 21.7 29.2619 22.9C30.3819 24.1 31.7752 24.7 33.4419 24.7ZM48.0369 28.64V0H53.3369V28.64H48.0369ZM67.6341 29.28C64.4607 29.28 61.8807 28.2533 59.8941 26.2C57.9074 24.1333 56.9141 21.5133 56.9141 18.34C56.9141 15.18 57.9074 12.5667 59.8941 10.5C61.8807 8.43333 64.4074 7.4 67.4741 7.4C70.4741 7.4 72.9207 8.33333 74.8141 10.2C76.7074 12.0533 77.6541 14.4067 77.6541 17.26V19.4H59.5741V16.36H72.6741C72.5941 15 72.0874 13.88 71.1541 13C70.2207 12.12 68.9941 11.68 67.4741 11.68C65.8474 11.68 64.5207 12.2667 63.4941 13.44C62.4674 14.6133 61.9541 16.2133 61.9541 18.24C61.9541 20.3467 62.5274 22.02 63.6741 23.26C64.8341 24.5 66.3074 25.12 68.0941 25.12C68.9207 25.12 69.6474 25.0067 70.2741 24.78C70.9007 24.5533 71.4674 24.24 71.9741 23.84C72.4807 23.4267 73.0541 22.78 73.6941 21.9L77.1541 24.16C76.2874 25.52 75.4074 26.54 74.5141 27.22C73.6341 27.9 72.6541 28.4133 71.5741 28.76C70.4941 29.1067 69.1807 29.28 67.6341 29.28ZM88.8609 29.28C87.4343 29.28 86.1876 29.12 85.1209 28.8C84.0543 28.4933 83.1076 28.04 82.2809 27.44C81.4543 26.8267 80.7876 26.1533 80.2809 25.42C79.7743 24.6867 79.5209 24.32 79.5209 24.32L83.0409 21.9C83.0409 21.9 83.2276 22.16 83.6009 22.68C83.9876 23.2 84.4409 23.66 84.9609 24.06C85.4943 24.4467 86.0876 24.74 86.7409 24.94C87.3943 25.14 88.1676 25.24 89.0609 25.24C90.1409 25.24 91.0009 25.04 91.6409 24.64C92.2943 24.24 92.6209 23.66 92.6209 22.9C92.6209 22.2467 92.3409 21.7333 91.7809 21.36C91.2209 20.9867 89.9343 20.5733 87.9209 20.12C85.2543 19.5067 83.3343 18.6733 82.1609 17.62C81.0009 16.5667 80.4209 15.2267 80.4209 13.6C80.4209 11.7333 81.2076 10.2333 82.7809 9.1C84.3676 7.96667 86.3543 7.4 88.7409 7.4C89.9543 7.4 91.0409 7.52667 92.0009 7.78C92.9609 8.03333 93.8209 8.40667 94.5809 8.9C95.3409 9.39333 95.9609 9.93333 96.4409 10.52C96.9209 11.1067 97.1609 11.4 97.1609 11.4L93.8009 13.88C93.8009 13.88 93.6343 13.6867 93.3009 13.3C92.9676 12.9133 92.5609 12.5733 92.0809 12.28C91.6009 11.9733 91.0743 11.7533 90.5009 11.62C89.9409 11.4867 89.3409 11.42 88.7009 11.42C87.7009 11.42 86.8943 11.62 86.2809 12.02C85.6809 12.4067 85.3809 12.88 85.3809 13.44C85.3809 14.04 85.6543 14.5333 86.2009 14.92C86.7476 15.3067 88.0676 15.74 90.1609 16.22C92.8409 16.8333 94.7543 17.66 95.9009 18.7C97.0609 19.74 97.6409 21.0533 97.6409 22.64C97.6409 24.6533 96.8276 26.2667 95.2009 27.48C93.5876 28.68 91.4743 29.28 88.8609 29.28Z" fill="white"/>
</svg>
